<svg width="185" height="185" viewBox="0 0 185 185" fill="none" xmlns="http://www.w3.org/2000/svg">
<path d="M0 0C61.6381 0 123.276 0 185 0C185 61.681 185 123.319 185 185C184.056 185 183.154 184.957 182.21 184.957C122.418 184.957 62.6253 184.957 2.83295 184.957C1.93155 184.957 1.03016 184.957 0 184.957C0 183.841 0 182.983 0 182.124C0 159.718 0 137.312 0 114.906C0 76.6183 0 38.3306 0 0ZM151.348 136.883C151.219 135.767 151.133 134.951 151.005 134.136C149.073 124.135 147.142 114.133 145.21 104.132C141.69 86.0186 138.128 67.9049 134.651 49.7912C134.393 48.4176 133.878 48.0313 132.59 48.0742C126.023 48.1172 119.456 48.1172 112.889 48.0742C111.515 48.0742 110.914 48.5464 110.528 49.877C107.008 61.9814 103.403 74.0429 99.8399 86.1473C97.522 94.0023 95.2042 101.857 92.7575 110.099C91.1694 104.862 89.71 100.055 88.2506 95.2042C83.7436 80.0522 79.2367 64.9002 74.7726 49.7483C74.3863 48.4606 73.7854 48.1172 72.4977 48.1172C65.8445 48.1601 59.2343 48.1601 52.5812 48.1172C51.2935 48.1172 50.8213 48.5893 50.6067 49.7483C49.6195 54.942 48.5893 60.0928 47.5592 65.2865C43.6102 85.6323 39.6183 105.978 35.6694 126.324C34.9826 129.8 34.4246 133.234 33.7378 136.926C40.7773 136.926 47.4733 136.969 54.1694 136.84C54.6415 136.84 55.4571 135.81 55.5429 135.209C56.4014 130.53 57.1311 125.809 57.9466 121.087C59.7494 110.399 61.5951 99.7111 63.3979 89.0661C64.0847 85.0742 64.7715 81.1253 65.5012 77.1763C66.7889 79.9664 67.6473 82.7993 68.4629 85.6752C73.0986 102.115 77.7773 118.555 82.3701 135.037C82.7993 136.582 83.529 137.055 85.0742 137.012C90.1392 136.926 95.2042 136.926 100.269 137.012C101.771 137.055 102.372 136.497 102.759 135.08C107.738 117.267 112.803 99.4536 117.868 81.6404C118.297 80.138 118.812 78.5928 119.284 77.0905C121.216 85.9756 122.718 94.8179 124.22 103.617C125.98 114.005 127.74 124.392 129.457 134.823C129.715 136.454 130.316 137.097 132.075 137.055C135.638 136.926 139.201 137.012 142.763 137.012C145.553 136.883 148.343 136.883 151.348 136.883Z" fill="#061A33"/>
<path d="M151.348 136.883C148.343 136.883 145.553 136.883 142.806 136.883C139.243 136.883 135.681 136.797 132.118 136.926C130.358 137.011 129.757 136.325 129.5 134.694C127.783 124.306 126.023 113.876 124.263 103.488C122.761 94.689 121.258 85.8467 119.327 76.9616C118.855 78.4639 118.34 79.9662 117.91 81.5115C112.845 99.3247 107.823 117.138 102.801 134.951C102.415 136.368 101.814 136.926 100.312 136.883C95.2467 136.797 90.1817 136.797 85.1168 136.883C83.5715 136.926 82.8418 136.453 82.4126 134.908C77.8198 118.426 73.1411 101.986 68.5054 85.5463C67.6899 82.7133 66.8314 79.8375 65.5437 77.0474C64.8569 80.9964 64.1272 84.9883 63.4404 88.9372C61.5947 99.6252 59.7919 110.27 57.9892 120.958C57.1736 125.68 56.4439 130.358 55.5854 135.08C55.4567 135.724 54.6841 136.711 54.2119 136.711C47.5158 136.84 40.8198 136.797 33.7803 136.797C34.4242 133.148 35.0251 129.672 35.7119 126.195C39.6608 105.849 43.6098 85.5034 47.6017 65.1576C48.5889 59.9639 49.662 54.8131 50.6492 49.6194C50.8639 48.4604 51.336 47.9453 52.6237 47.9883C59.2769 48.0312 65.8871 48.0312 72.5402 47.9883C73.785 47.9883 74.4288 48.3317 74.8151 49.6194C79.2792 64.7713 83.7861 79.9233 88.2931 95.0753C89.7525 99.9256 91.2119 104.733 92.8001 109.97C95.2467 101.728 97.5646 93.8734 99.8824 86.0184C103.445 73.914 107.051 61.8525 110.57 49.7481C110.957 48.4175 111.558 47.9453 112.931 47.9453C119.498 48.0312 126.066 47.9883 132.633 47.9453C133.921 47.9453 134.436 48.3317 134.693 49.6623C138.17 67.776 141.733 85.8897 145.253 104.003C147.184 114.005 149.116 124.006 151.047 134.007C151.133 134.951 151.219 135.767 151.348 136.883Z" fill="white"/>
</svg>
