<svg width="20" height="20" viewBox="0 0 20 20" fill="none" xmlns="http://www.w3.org/2000/svg">
<path d="M10.7422 19.1305C8.00807 19.1305 5.27396 19.1305 2.53613 19.1305C2.52125 19.1194 2.51009 19.1045 2.49149 19.1008C1.45737 18.8814 0.869629 18.16 0.869629 17.1077C0.869629 12.3631 0.869629 7.61847 0.869629 2.87384C0.869629 1.69141 1.69172 0.873366 2.87464 0.873366C5.53435 0.873366 8.19406 0.873366 10.8538 0.873366C12.9629 0.873366 15.0721 0.869648 17.1813 0.877084C18.0071 0.880803 18.606 1.27123 18.9594 2.01862C19.0375 2.18223 19.0747 2.36443 19.1268 2.53919C19.1268 7.51436 19.1268 12.4858 19.1268 17.461C19.1156 17.4944 19.097 17.5242 19.0896 17.5576C18.9333 18.305 18.487 18.7959 17.769 19.0413C17.6649 19.0747 17.5607 19.1008 17.4566 19.1305C15.9835 19.1305 14.5104 19.1305 13.0373 19.1305C13.0373 16.721 13.0373 14.3152 13.0373 11.8871C13.9524 11.8871 14.8415 11.8871 15.738 11.8871C15.831 11.1286 15.924 10.3849 16.0207 9.61895C15.0126 9.61895 14.0343 9.61895 13.0373 9.61895C13.0373 9.07979 13.0299 8.56294 13.0373 8.04608C13.0485 7.43999 13.3126 6.95289 13.7888 6.58105C14.157 6.29474 14.5774 6.1869 15.0386 6.19062C15.3771 6.19062 15.7157 6.19062 16.0653 6.19062C16.0653 5.42464 16.0653 4.68097 16.0653 3.91499C15.3771 3.92242 14.7001 3.87408 14.0268 4.0191C12.2004 4.40953 10.8129 6.06792 10.7682 7.93453C10.7571 8.42908 10.7645 8.92362 10.7608 9.41816C10.7608 9.48509 10.7533 9.5483 10.7496 9.62639C9.9796 9.62639 9.23563 9.62639 8.48049 9.62639C8.48049 10.3849 8.48049 11.1323 8.48049 11.8983C9.24307 11.8983 9.99076 11.8983 10.7496 11.8983C10.7533 11.969 10.7608 12.0173 10.7608 12.0656C10.7608 14.3673 10.7608 16.6652 10.7608 18.9669C10.7645 19.0227 10.7496 19.0747 10.7422 19.1305ZM16.8279 3.16388C16.8279 4.43184 16.8279 5.68493 16.8279 6.95289C16.7461 6.95289 16.6791 6.95289 16.6121 6.95289C16.069 6.95289 15.5222 6.94917 14.9791 6.95289C14.4063 6.96032 13.919 7.321 13.8371 7.84901C13.7888 8.16879 13.8297 8.49972 13.8297 8.84553C14.8452 8.84553 15.8607 8.84553 16.8986 8.84553C16.7386 10.1284 16.5824 11.3852 16.4187 12.668C15.5408 12.668 14.6778 12.668 13.8185 12.668C13.8185 14.5718 13.8185 16.4496 13.8185 18.3385C13.8892 18.3422 13.9487 18.3459 14.0082 18.3459C15.061 18.3459 16.11 18.3459 17.1627 18.3459C17.8806 18.3459 18.3568 17.87 18.3568 17.1486C18.3568 12.378 18.3568 7.61104 18.3568 2.84038C18.3568 2.10414 17.8843 1.63563 17.1515 1.63563C12.3826 1.63563 7.61376 1.63563 2.84116 1.63563C2.11951 1.63563 1.63964 2.10786 1.63964 2.82551C1.63964 7.59988 1.63964 12.3743 1.63964 17.1523C1.63964 17.87 2.11579 18.3459 2.83744 18.3459C5.15865 18.3459 7.47613 18.3459 9.79733 18.3459C9.86057 18.3459 9.92753 18.3459 9.98332 18.3459C9.98332 16.431 9.98332 14.5495 9.98332 12.6494C9.22447 12.6494 8.47677 12.6494 7.72164 12.6494C7.72164 11.374 7.72164 10.1172 7.72164 8.8381C8.48421 8.8381 9.23563 8.8381 9.9982 8.8381C9.9982 8.57037 9.9982 8.32496 9.9982 8.07583C9.99448 7.26895 10.173 6.50296 10.5636 5.80019C11.4601 4.17899 12.8365 3.27915 14.6927 3.16388C15.366 3.12297 16.0393 3.149 16.7163 3.149C16.7498 3.15272 16.787 3.16016 16.8279 3.16388Z" fill="#B13907" stroke="#B13907" stroke-width="0.5"/>
</svg>
