<svg width="90" height="96" viewBox="0 0 90 96" fill="none" xmlns="http://www.w3.org/2000/svg">
<path d="M89.9995 27.7517C89.9076 28.5205 89.8341 29.2893 89.7238 30.0581C89.0161 34.8851 87.3341 39.2449 84.1449 42.8359C78.5752 49.0836 72.7758 55.0881 66.8477 60.9466C64.4856 63.2822 61.6181 64.6057 58.5759 65.54C55.4418 66.5034 52.2342 66.7662 48.999 66.3282C43.797 65.6275 39.2475 63.4282 35.4149 59.6133C34.5878 58.7861 33.8801 57.8422 33.6779 56.5965C33.1815 53.5602 35.0749 51.1954 37.7402 51.0592C39.1005 50.991 40.2309 51.4387 41.2144 52.3632C43.1996 54.2317 45.4238 55.6331 47.9972 56.3532C48.5671 56.5089 49.1645 56.6354 49.7527 56.6646C52.7581 56.8301 55.7451 56.8593 58.5483 55.38C59.881 54.6794 61.0391 53.7354 62.096 52.6552C65.0463 49.6383 67.969 46.5923 70.8825 43.5463C73.2813 41.0452 75.6525 38.515 78.033 35.9945C78.2168 35.7998 78.3822 35.576 78.4833 35.3327C79.191 33.6005 80.1101 31.9169 80.5237 30.1068C82.077 23.2557 79.5862 15.6163 72.8034 12.1128C67.7392 9.49501 62.7118 9.76749 57.8682 12.7065C56.6274 13.4558 55.6165 14.6334 54.5503 15.6746C52.2526 17.9324 49.9733 20.2194 47.7123 22.516C46.4624 23.7812 45.0102 23.8006 43.5305 23.2946C42.014 22.7788 41.0214 21.6499 40.7089 19.9663C40.5986 19.3532 40.5894 18.7109 40.6078 18.0784C40.6262 17.2998 41.003 16.6575 41.5177 16.1223C44.0452 13.4169 46.5635 10.7017 49.1277 8.03525C50.1019 7.01342 51.1129 5.99159 52.2342 5.15466C55.2212 2.94556 58.5392 1.45661 62.1695 0.970022C67.39 0.269339 72.4357 0.892169 77.1323 3.63651C83.5659 7.40269 87.7385 13.0082 89.4021 20.6184C89.6594 21.8056 89.7421 23.0416 89.9076 24.258C89.926 24.4137 89.9627 24.5694 89.9903 24.7349C89.9995 25.747 89.9995 26.7493 89.9995 27.7517Z" fill="black"/>
<path d="M23.1558 95.9999C22.3378 95.9026 21.5198 95.8247 20.7018 95.7177C16.6854 95.1435 13.0366 93.5961 9.79224 91.027C5.03137 87.2608 1.86971 82.3365 0.619751 76.1666C-0.896743 68.6538 0.344025 61.6567 4.62697 55.3894C5.57363 54.0075 6.77763 52.8203 7.92649 51.6135C12.5771 46.6893 17.2552 41.7942 21.9242 36.8797C25.1686 33.4639 29.1114 31.4689 33.5782 30.6027C35.8759 30.1551 38.1828 30.0967 40.5173 30.3303C45.4528 30.8266 49.7633 32.8508 53.5592 36.1498C54.2852 36.7824 54.947 37.522 55.5536 38.2908C56.9874 40.0912 56.73 43.8865 53.8257 45.3074C53.5132 45.4533 53.1456 45.4825 52.8055 45.5409C50.9214 45.8329 49.3957 45.0933 48.0263 43.7503C46.2984 42.057 44.2948 40.821 41.9787 40.2663C38.0174 39.3224 34.1389 39.5073 30.6004 41.8137C29.1942 42.7285 27.9166 43.9157 26.731 45.1517C22.0529 49.9981 17.439 54.9126 12.7977 59.7979C10.7665 61.9389 9.78305 64.6637 9.25917 67.5249C8.69853 70.5709 8.94668 73.6267 10.1139 76.5267C12.2186 81.7332 15.9134 84.9057 21.1613 85.9859C24.8928 86.7547 28.4773 86.2292 31.786 84.2148C32.8797 83.5433 33.8447 82.5896 34.7822 81.6748C36.8961 79.6019 38.9457 77.4707 41.032 75.3784C41.464 74.9404 41.9235 74.5414 42.3647 74.1132C43.4584 73.033 44.7451 72.8773 46.1237 73.2666C48.6053 73.977 50.0299 76.7019 49.2303 79.2711C49.0924 79.6992 48.8442 80.1274 48.5593 80.4583C45.2414 84.3413 41.7857 88.0977 37.9347 91.387C35.3245 93.6156 32.1996 94.8613 28.8909 95.5036C27.7788 95.7177 26.6483 95.7858 25.527 95.922C25.4075 95.9415 25.288 95.9707 25.1778 95.9999C24.4976 95.9999 23.8267 95.9999 23.1558 95.9999Z" fill="black"/>
</svg>
