<svg width="21" height="21" viewBox="0 0 21 21" fill="none" xmlns="http://www.w3.org/2000/svg">
<path d="M10.5036 19.9914C9.01078 19.9914 7.49768 20.0523 6.01505 19.8695C3.18181 19.5141 1.02895 16.9449 1.00864 14.0811C0.988331 11.6947 0.988331 9.29815 1.00864 6.91172C1.03911 3.73321 3.70987 1.05229 6.87823 1.02182C9.28496 1.00151 11.6917 1.00151 14.0984 1.02182C17.2668 1.05229 19.9477 3.73321 19.9782 6.90157C19.9985 9.3083 19.9985 11.715 19.9782 14.1218C19.9477 17.2901 17.2668 19.9507 14.0883 19.9914C12.89 20.0015 11.7019 19.9914 10.5036 19.9914C10.5036 19.9609 10.5036 20.0218 10.5036 19.9914ZM19.0947 10.5066C19.0947 9.3083 19.1048 8.12017 19.0947 6.92188C19.0642 4.16987 16.82 1.92562 14.068 1.90531C11.6917 1.885 9.32558 1.885 6.94931 1.90531C4.16685 1.92562 1.92259 4.16987 1.90228 6.9625C1.88197 9.31846 1.88197 11.6744 1.90228 14.0304C1.92259 16.8433 4.16684 19.0876 6.97978 19.1079C9.33574 19.118 11.6917 19.1282 14.0477 19.1079C16.8301 19.0876 19.0642 16.8433 19.0947 14.0507C19.1048 12.8727 19.0947 11.6947 19.0947 10.5066Z" fill="#B13907"/>
<path d="M10.5036 19.9914C9.01078 19.9914 7.49768 20.0523 6.01505 19.8695C3.18181 19.5141 1.02895 16.9449 1.00864 14.0811C0.988331 11.6947 0.988331 9.29815 1.00864 6.91172C1.03911 3.73321 3.70987 1.05229 6.87823 1.02182C9.28496 1.00151 11.6917 1.00151 14.0984 1.02182C17.2668 1.05229 19.9477 3.73321 19.9782 6.90157C19.9985 9.3083 19.9985 11.715 19.9782 14.1218C19.9477 17.2901 17.2668 19.9507 14.0883 19.9914C12.89 20.0015 11.7019 19.9914 10.5036 19.9914ZM10.5036 19.9914C10.5036 19.9609 10.5036 20.0218 10.5036 19.9914ZM19.0947 10.5066C19.0947 9.3083 19.1048 8.12017 19.0947 6.92188C19.0642 4.16987 16.82 1.92562 14.068 1.90531C11.6917 1.885 9.32558 1.885 6.94931 1.90531C4.16685 1.92562 1.92259 4.16987 1.90228 6.9625C1.88197 9.31846 1.88197 11.6744 1.90228 14.0304C1.92259 16.8433 4.16684 19.0876 6.97978 19.1079C9.33574 19.118 11.6917 19.1282 14.0477 19.1079C16.8301 19.0876 19.0642 16.8433 19.0947 14.0507C19.1048 12.8727 19.0947 11.6947 19.0947 10.5066Z" stroke="#B13907" stroke-width="0.5"/>
<path d="M15.2474 10.5051C15.2474 13.1251 13.125 15.2475 10.4948 15.2475C7.87484 15.2475 5.75244 13.1251 5.75244 10.4949C5.75244 7.87496 7.87484 5.75256 10.505 5.75256C13.125 5.76272 15.2474 7.88511 15.2474 10.5051ZM10.4948 14.364C12.6477 14.364 14.3537 12.6884 14.3639 10.5457C14.374 8.3624 12.6883 6.65636 10.5151 6.65636C8.36227 6.65636 6.65624 8.33193 6.64608 10.4746C6.63593 12.6478 8.32166 14.3538 10.4948 14.364Z" fill="#B13907" stroke="#B13907" stroke-width="0.5"/>
<path d="M15.7145 4.03642C14.9833 4.01611 14.374 4.58479 14.3639 5.30579C14.3537 5.99633 14.9833 6.63609 15.6739 6.63609C16.3644 6.63609 16.9534 6.0471 16.9636 5.34641C16.9737 4.63556 16.4254 4.05673 15.7145 4.03642ZM15.6637 5.85416C15.3692 5.85416 15.1255 5.61044 15.1255 5.31594C15.1255 5.02145 15.3692 4.77773 15.6637 4.77773C15.9582 4.77773 16.2019 5.02145 16.2019 5.31594C16.2019 5.61044 15.9582 5.85416 15.6637 5.85416Z" fill="#B13907" stroke="#B13907" stroke-width="0.25"/>
</svg>
