<svg width="21" height="21" viewBox="0 0 21 21" fill="none" xmlns="http://www.w3.org/2000/svg">
<path d="M10.4968 20.9936C8.31853 20.9936 6.14242 20.9871 3.96417 21C3.56539 21.0022 3.19234 20.9271 2.82787 20.7898C1.37642 20.243 0.465237 19.205 0.0686064 17.7059C0.0235835 17.5386 0.0042879 17.3735 0.0042879 17.1998C0.00643185 12.8054 0.0085758 8.41113 0 4.01467C0 3.59218 0.0707504 3.19328 0.218683 2.80511C0.795406 1.29744 1.8781 0.37097 3.45819 0.0535675C3.8098 -0.0172048 4.18285 0.00424136 4.54732 0.00424136C8.82665 -4.78724e-05 13.106 -0.00219249 17.3853 0.00638597C17.6233 0.00638597 17.8655 0.102894 18.0949 0.184389C19.5571 0.701241 20.4855 1.71993 20.9078 3.20615C20.97 3.42705 20.9957 3.65008 20.9957 3.87956C20.9936 8.261 20.9914 12.6403 20.9979 17.0218C20.9979 17.4013 20.9314 17.7574 20.8092 18.1069C20.4361 19.1728 19.7672 19.9899 18.7703 20.5239C18.3694 20.7384 17.9384 20.8756 17.5011 20.9871C17.456 20.9979 17.4089 20.9936 17.3617 20.9936C15.0741 20.9936 12.7844 20.9936 10.4968 20.9936ZM10.4025 0.819195C10.4025 0.812761 10.4025 0.806327 10.4025 0.802038C8.32496 0.812761 6.24747 0.825628 4.16998 0.834207C3.44533 0.838496 2.78285 1.04223 2.20398 1.47759C1.36355 2.1124 0.891884 2.95952 0.844717 4.01896C0.816845 4.61516 0.818989 5.21136 0.818989 5.80757C0.818989 9.29256 0.818989 12.7776 0.827565 16.2626C0.827565 16.6572 0.840429 17.0561 0.902603 17.4464C1.02481 18.2184 1.41501 18.8533 2.00459 19.3615C2.56417 19.8441 3.21807 20.1293 3.95773 20.1529C4.87749 20.1851 5.79939 20.1872 6.71914 20.1915C8.42787 20.1979 10.1387 20.2044 11.8475 20.1979C13.5562 20.1915 15.2671 20.1765 16.9758 20.1572C17.4861 20.1507 17.9685 20.0135 18.4123 19.7626C19.2891 19.2693 19.8466 18.5337 20.0802 17.5536C20.1789 17.1354 20.1703 16.7086 20.1703 16.2861C20.1703 12.2114 20.1639 8.13876 20.1531 4.064C20.1531 3.82809 20.1145 3.58575 20.0567 3.35627C19.6943 1.90008 18.4123 0.877099 16.9136 0.836352C16.4398 0.823484 15.9639 0.821339 15.49 0.821339C13.7942 0.819195 12.0983 0.819195 10.4025 0.819195Z" fill="#B13907" stroke="#B13907" stroke-width="0.1"/>
<path d="M11.7963 8.19878C11.9271 8.12157 12.0429 8.0508 12.1608 7.98861C12.8426 7.62402 13.5736 7.52323 14.3348 7.57899C15.1259 7.63689 15.8441 7.88781 16.4723 8.37893C17.1305 8.89149 17.5421 9.56918 17.8037 10.352C17.9452 10.7787 18.0159 11.2141 18.0181 11.6645C18.0245 13.6997 18.0309 15.7349 18.0374 17.7702C18.0374 17.8881 17.8916 18.0382 17.7737 18.0382C16.5988 18.0468 15.426 18.0533 14.2511 18.064C14.1568 18.064 14.1139 18.0082 14.0496 17.9653C13.9124 17.8753 13.8802 17.7552 13.8802 17.5965C13.8738 15.6856 13.8588 13.7769 13.8438 11.8661C13.8416 11.4521 13.5136 11.0425 13.1106 10.9546C12.7782 10.8838 12.4609 10.9074 12.1908 11.1369C11.9828 11.3149 11.8285 11.5358 11.8242 11.8232C11.8006 13.3866 11.7792 14.95 11.7599 16.5134C11.7556 16.9123 11.7513 17.3134 11.7513 17.7123C11.7513 17.7916 11.7191 17.8388 11.6677 17.8946C11.5433 18.0382 11.3933 18.0618 11.2132 18.0597C10.1026 18.0447 8.99417 18.0404 7.8836 18.034C7.73782 18.034 7.56201 17.8538 7.56201 17.7058C7.56201 14.461 7.56201 11.2141 7.56201 7.96931C7.56201 7.77629 7.7614 7.56612 7.9565 7.55969C8.15589 7.55325 8.35527 7.5554 8.5568 7.5554C9.47013 7.5554 10.3835 7.5554 11.2989 7.55754C11.5133 7.55754 11.6955 7.70766 11.7384 7.91998C11.7599 8.00791 11.7749 8.09584 11.7963 8.19878ZM10.9023 17.234C10.9044 17.1976 10.9066 17.1654 10.9066 17.1354C10.913 15.4797 10.9259 13.8219 10.9237 12.1663C10.9237 11.8682 10.9687 11.5894 11.0802 11.3149C11.2946 10.7852 11.6291 10.3734 12.1865 10.1868C12.4631 10.0946 12.7525 10.0796 13.0419 10.1075C13.7709 10.1804 14.2704 10.5493 14.547 11.2313C14.6756 11.5487 14.6714 11.8811 14.6735 12.2113C14.6821 13.8434 14.6864 15.4754 14.6906 17.1053C14.6906 17.1461 14.6906 17.189 14.6906 17.234C15.5482 17.234 16.3908 17.234 17.2377 17.234C17.2398 17.1976 17.242 17.1697 17.242 17.1418C17.2291 15.4132 17.2162 13.6868 17.1991 11.9583C17.1948 11.4693 17.1433 10.9868 16.9697 10.5192C16.7896 10.0346 16.5495 9.59063 16.1743 9.23034C15.5246 8.61054 14.7314 8.38751 13.8524 8.40895C13.1835 8.42611 12.5831 8.61912 12.0857 9.08021C11.9207 9.23248 11.7706 9.4019 11.6141 9.56275C11.5069 9.67427 11.3761 9.72145 11.2367 9.65926C11.1317 9.61208 11.0352 9.53916 10.9559 9.45552C10.9194 9.41692 10.928 9.32899 10.928 9.26465C10.9259 8.98371 10.9259 8.70276 10.9259 8.41538C10.0661 8.41538 9.23644 8.41538 8.40887 8.41538C8.40887 11.3621 8.40887 14.298 8.40887 17.2404C9.24287 17.234 10.0704 17.234 10.9023 17.234Z" fill="#B13907" stroke="#B13907" stroke-width="0.1"/>
<path d="M7.11377 12.8246C7.11377 14.4524 7.11377 16.0801 7.11591 17.71C7.11591 17.7894 7.0859 17.8387 7.03444 17.8945C6.91224 18.0274 6.77288 18.066 6.59065 18.0639C5.46936 18.0467 4.35022 18.0446 3.22893 18.036C3.11101 18.036 2.96094 17.888 2.96094 17.7722C2.96094 14.4738 2.96094 11.1733 2.96094 7.8749C2.96094 7.7355 3.14532 7.57036 3.31469 7.56607C3.63199 7.5575 3.9493 7.55535 4.2666 7.55535C5.04486 7.55535 5.82311 7.55321 6.60137 7.56393C6.71928 7.56607 6.84149 7.6154 6.95297 7.66258C7.05374 7.70762 7.09233 7.80198 7.09447 7.91779C7.10091 8.77777 7.11163 9.63776 7.11591 10.4999C7.1202 11.2741 7.11591 12.0504 7.11591 12.8246C7.11806 12.8246 7.11591 12.8246 7.11377 12.8246ZM3.77349 8.40676C3.77349 11.3577 3.77349 14.2958 3.77349 17.2339C4.62036 17.2339 5.45864 17.2339 6.30121 17.2339C6.30121 14.2894 6.30121 11.3492 6.30121 8.40676C5.45435 8.40676 4.61821 8.40676 3.77349 8.40676Z" fill="#B13907" stroke="#B13907" stroke-width="0.1"/>
<path d="M4.97823 3.37555C5.43918 3.36269 5.87655 3.44204 6.25603 3.71869C6.9378 4.21838 7.22938 4.90251 7.08359 5.72604C6.93566 6.54957 6.39538 7.0557 5.59355 7.25515C4.8303 7.44387 4.12494 7.29375 3.54178 6.74259C3.08941 6.31581 2.89645 5.77322 2.95434 5.15558C3.03581 4.25699 3.56751 3.72083 4.39508 3.45061C4.5816 3.38842 4.78313 3.3777 4.97823 3.34338C4.97609 3.35411 4.97823 3.36483 4.97823 3.37555ZM3.79048 5.33358C3.79263 5.85257 4.08635 6.26863 4.55587 6.4209C4.81529 6.50454 5.079 6.5174 5.34699 6.46593C5.8208 6.37371 6.17027 6.04345 6.25817 5.60166C6.35465 5.12126 6.17241 4.64087 5.76935 4.38995C5.45633 4.19694 5.10901 4.1519 4.74454 4.21624C4.15281 4.31918 3.78834 4.73952 3.79048 5.33358Z" fill="#B13907" stroke="#B13907" stroke-width="0.1"/>
</svg>
