<svg width="35" height="35" viewBox="0 0 35 35" fill="none" xmlns="http://www.w3.org/2000/svg">
<path d="M0 0C11.6613 0 23.3225 0 35 0C35 11.6694 35 23.3306 35 35C34.8213 35 34.6508 34.9919 34.4722 34.9919C23.1601 34.9919 11.848 34.9919 0.535963 34.9919C0.365429 34.9919 0.194896 34.9919 0 34.9919C0 34.7807 0 34.6183 0 34.4559C0 30.2169 0 25.978 0 21.739C0 14.4954 0 7.25174 0 0ZM28.6334 25.8968C28.609 25.6856 28.5928 25.5313 28.5684 25.377C28.203 23.4849 27.8376 21.5928 27.4722 19.7007C26.8063 16.2738 26.1323 12.8469 25.4745 9.41995C25.4258 9.16009 25.3283 9.08701 25.0847 9.09513C23.8422 9.10325 22.5998 9.10325 21.3573 9.09513C21.0974 9.09513 20.9838 9.18445 20.9107 9.43619C20.2448 11.7262 19.5626 14.0081 18.8886 16.2981C18.4501 17.7842 18.0116 19.2703 17.5487 20.8295C17.2483 19.8387 16.9722 18.9292 16.6961 18.0116C15.8434 15.145 14.9907 12.2784 14.1462 9.41183C14.0731 9.16821 13.9594 9.10325 13.7158 9.10325C12.4571 9.11137 11.2065 9.11137 9.9478 9.10325C9.70418 9.10325 9.61485 9.19258 9.57425 9.41183C9.38747 10.3944 9.19258 11.3689 8.99768 12.3515C8.25058 16.2007 7.49536 20.0499 6.74826 23.8991C6.61833 24.5568 6.51276 25.2065 6.38283 25.9049C7.71462 25.9049 8.98144 25.913 10.2483 25.8886C10.3376 25.8886 10.4919 25.6937 10.5081 25.58C10.6705 24.6949 10.8086 23.8016 10.9629 22.9084C11.3039 20.8863 11.6531 18.8643 11.9942 16.8503C12.1241 16.0951 12.2541 15.348 12.3921 14.6009C12.6357 15.1288 12.7981 15.6647 12.9524 16.2088C13.8295 19.319 14.7146 22.4292 15.5835 25.5476C15.6647 25.8399 15.8028 25.9292 16.0951 25.9211C17.0534 25.9049 18.0116 25.9049 18.9698 25.9211C19.2541 25.9292 19.3677 25.8237 19.4408 25.5557C20.3828 22.1856 21.3411 18.8155 22.2993 15.4455C22.3805 15.1613 22.478 14.8689 22.5673 14.5847C22.9327 16.2657 23.2169 17.9385 23.5012 19.6032C23.8341 21.5684 24.1671 23.5336 24.4919 25.507C24.5406 25.8155 24.6543 25.9374 24.9872 25.9292C25.6613 25.9049 26.3353 25.9211 27.0093 25.9211C27.5371 25.8968 28.065 25.8968 28.6334 25.8968Z" fill="#061A33"/>
<path d="M28.6333 25.8967C28.0649 25.8967 27.537 25.8967 27.0173 25.8967C26.3433 25.8967 25.6693 25.8805 24.9953 25.9048C24.6623 25.9211 24.5486 25.7912 24.4999 25.4826C24.1751 23.5174 23.8421 21.5441 23.5092 19.5789C23.225 17.9141 22.9408 16.2413 22.5753 14.5603C22.486 14.8445 22.3886 15.1287 22.3073 15.4211C21.3491 18.7912 20.399 22.1612 19.4489 25.5313C19.3758 25.7993 19.2621 25.9048 18.9779 25.8967C18.0196 25.8805 17.0614 25.8805 16.1032 25.8967C15.8108 25.9048 15.6728 25.8155 15.5916 25.5232C14.7227 22.4048 13.8375 19.2946 12.9605 16.1844C12.8062 15.6485 12.6438 15.1044 12.4002 14.5765C12.2702 15.3236 12.1322 16.0789 12.0022 16.826C11.6531 18.848 11.312 20.8619 10.9709 22.884C10.8166 23.7772 10.6786 24.6624 10.5162 25.5557C10.4918 25.6775 10.3456 25.8642 10.2563 25.8642C8.98948 25.8886 7.72266 25.8805 6.39087 25.8805C6.51268 25.1902 6.62637 24.5325 6.7563 23.8747C7.5034 20.0255 8.2505 16.1763 9.00572 12.3271C9.19249 11.3445 9.39551 10.37 9.58228 9.38745C9.62289 9.16819 9.71222 9.07074 9.95583 9.07886C11.2145 9.08698 12.4651 9.08698 13.7238 9.07886C13.9593 9.07886 14.0811 9.14383 14.1542 9.38745C14.9988 12.254 15.8514 15.1206 16.7041 17.9872C16.9802 18.9048 17.2563 19.8144 17.5568 20.8051C18.0196 19.2459 18.4582 17.7598 18.8967 16.2738C19.5707 13.9837 20.2528 11.7018 20.9187 9.41181C20.9918 9.16007 21.1055 9.07074 21.3653 9.07074C22.6078 9.08698 23.8503 9.07886 25.0927 9.07074C25.3363 9.07074 25.4338 9.14383 25.4825 9.39557C26.1403 12.8225 26.8143 16.2494 27.4802 19.6763C27.8456 21.5684 28.2111 23.4605 28.5765 25.3526C28.5927 25.5313 28.609 25.6856 28.6333 25.8967Z" fill="white"/>
</svg>
