<svg width="448" height="413" viewBox="0 0 448 413" fill="none" xmlns="http://www.w3.org/2000/svg">
<path d="M441.235 399.609H426.775V216.455H441.235C443.634 216.455 445.842 215.148 446.997 213.045C448.151 210.942 448.068 208.377 446.78 206.353L397.706 129.236C396.499 127.339 394.408 126.191 392.16 126.191H261.679L230.476 94.9895V69.2305H294.011C296.435 69.2305 298.662 67.8967 299.806 65.7593C300.95 63.6228 300.824 61.0289 299.479 59.0124L287.889 41.6259L299.48 24.2394C300.825 22.223 300.95 19.629 299.807 17.4925C298.662 15.3551 296.435 14.0214 294.011 14.0214H230.476V6.57251C230.476 2.94273 227.534 0 223.904 0C220.274 0 217.331 2.94273 217.331 6.57251V94.9895L186.129 126.192H55.6475C53.4005 126.192 51.3087 127.34 50.102 129.237L1.02723 206.354C-0.26011 208.378 -0.343362 210.943 0.810772 213.046C1.96578 215.148 4.17415 216.455 6.57268 216.455H21.0322V399.609H6.57268C2.9429 399.609 0.000161915 402.552 0.000161915 406.181C0.000161915 409.811 2.9429 412.754 6.57268 412.754H441.235C444.865 412.754 447.808 409.811 447.808 406.181C447.808 402.552 444.865 399.609 441.235 399.609ZM388.552 139.337L429.263 203.31H338.797L274.824 139.337H388.552ZM281.73 27.1664L274.52 37.9804C273.048 40.1879 273.048 43.064 274.52 45.2715L281.73 56.0855H230.476V27.1664H281.73ZM59.2553 139.337H172.983L109.01 203.31H18.546L59.2553 139.337ZM34.1772 216.455H111.731C111.949 216.455 112.166 216.443 112.383 216.422C112.476 216.413 112.567 216.395 112.659 216.382C112.779 216.365 112.899 216.351 113.019 216.327C113.126 216.306 113.23 216.276 113.335 216.25C113.437 216.224 113.541 216.201 113.642 216.171C113.746 216.139 113.847 216.1 113.948 216.064C114.049 216.028 114.15 215.995 114.25 215.954C114.345 215.914 114.436 215.868 114.529 215.824C114.63 215.776 114.733 215.731 114.832 215.678C114.922 215.629 115.007 215.574 115.095 215.522C115.191 215.465 115.289 215.41 115.383 215.347C115.481 215.281 115.573 215.209 115.667 215.138C115.744 215.08 115.824 215.026 115.898 214.964C116.066 214.827 116.228 214.681 116.381 214.527L223.904 107.006L331.427 214.528C331.58 214.681 331.742 214.827 331.91 214.965C331.984 215.026 332.063 215.08 332.14 215.138C332.235 215.209 332.328 215.282 332.426 215.348C332.519 215.41 332.616 215.465 332.711 215.522C332.8 215.575 332.886 215.63 332.977 215.678C333.075 215.731 333.176 215.776 333.277 215.823C333.37 215.868 333.463 215.914 333.56 215.954C333.658 215.995 333.758 216.027 333.857 216.063C333.959 216.1 334.061 216.139 334.166 216.172C334.266 216.202 334.368 216.224 334.468 216.25C334.575 216.277 334.681 216.307 334.789 216.328C334.905 216.351 335.021 216.365 335.138 216.381C335.233 216.395 335.328 216.413 335.425 216.422C335.641 216.443 335.857 216.455 336.074 216.455H413.63V399.609H272.54V308.032C272.54 296.676 263.302 287.438 251.947 287.438H195.861C184.506 287.438 175.267 296.676 175.267 308.032V399.609H34.1772V216.455ZM259.395 315.481H188.412V308.032C188.412 303.924 191.754 300.583 195.861 300.583H251.947C256.054 300.583 259.395 303.924 259.395 308.032V315.481ZM188.412 328.626H217.331V399.609H188.412V328.626ZM230.476 328.626H259.395V399.609H230.476V328.626Z" fill="black"/>
<path d="M223.905 265.53C250.724 265.53 272.542 243.712 272.542 216.893C272.542 190.075 250.724 168.256 223.905 168.256C197.087 168.256 175.269 190.075 175.269 216.893C175.269 243.712 197.087 265.53 223.905 265.53ZM223.905 181.401C243.475 181.401 259.397 197.323 259.397 216.893C259.397 236.463 243.475 252.385 223.905 252.385C204.335 252.385 188.414 236.463 188.414 216.893C188.414 197.323 204.335 181.401 223.905 181.401Z" fill="black"/>
<path d="M223.903 223.466C227.533 223.466 230.475 220.523 230.475 216.893V195.861C230.475 192.231 227.533 189.288 223.903 189.288C220.273 189.288 217.33 192.231 217.33 195.861V210.321H202.871C199.241 210.321 196.298 213.263 196.298 216.893C196.298 220.523 199.241 223.466 202.871 223.466H223.903Z" fill="black"/>
<path d="M153.795 322.491H118.742C115.112 322.491 112.169 325.434 112.169 329.064V371.128C112.169 374.758 115.112 377.701 118.742 377.701H153.795C157.425 377.701 160.368 374.758 160.368 371.128V329.064C160.368 325.434 157.425 322.491 153.795 322.491ZM147.223 335.636V343.524H125.314V335.636H147.223ZM125.314 364.556V356.669H147.223V364.556H125.314Z" fill="black"/>
<path d="M90.7006 322.491H55.6472C52.0174 322.491 49.0747 325.434 49.0747 329.064V371.128C49.0747 374.758 52.0174 377.701 55.6472 377.701H90.7006C94.3304 377.701 97.2732 374.758 97.2732 371.128V329.064C97.2732 325.434 94.3304 322.491 90.7006 322.491ZM84.1281 335.636V343.524H62.2197V335.636H84.1281ZM62.2197 364.556V356.669H84.1281V364.556H62.2197Z" fill="black"/>
<path d="M151.605 238.363H120.933C116.101 238.363 112.169 242.295 112.169 247.127V294.011C112.169 297.64 115.112 300.583 118.742 300.583H153.795C157.425 300.583 160.368 297.64 160.368 294.011V247.127C160.368 242.295 156.437 238.363 151.605 238.363ZM147.223 251.508V266.406H125.314V251.508H147.223ZM125.314 287.438V279.551H147.223V287.438H125.314Z" fill="black"/>
<path d="M88.5098 238.363H57.8381C53.0059 238.363 49.0747 242.295 49.0747 247.127V294.011C49.0747 297.64 52.0174 300.583 55.6472 300.583H90.7006C94.3304 300.583 97.2732 297.64 97.2732 294.011V247.127C97.2732 242.295 93.3419 238.363 88.5098 238.363ZM84.1281 251.508V266.406H62.2197V251.508H84.1281ZM62.2197 287.438V279.551H84.1281V287.438H62.2197Z" fill="black"/>
<path d="M357.109 377.701H392.163C395.792 377.701 398.735 374.758 398.735 371.128V329.064C398.735 325.434 395.792 322.491 392.163 322.491H357.109C353.479 322.491 350.537 325.434 350.537 329.064V371.128C350.537 374.758 353.479 377.701 357.109 377.701ZM363.682 364.556V356.669H385.59V364.556H363.682ZM385.59 335.636V343.524H363.682V335.636H385.59Z" fill="black"/>
<path d="M294.01 377.701H329.063C332.693 377.701 335.636 374.758 335.636 371.128V329.064C335.636 325.434 332.693 322.491 329.063 322.491H294.01C290.38 322.491 287.438 325.434 287.438 329.064V371.128C287.438 374.758 290.38 377.701 294.01 377.701ZM300.583 364.556V356.669H322.491V364.556H300.583ZM322.491 335.636V343.524H300.583V335.636H322.491Z" fill="black"/>
<path d="M357.109 300.583H392.163C395.792 300.583 398.735 297.64 398.735 294.011V247.127C398.735 242.295 394.804 238.363 389.972 238.363H359.3C354.468 238.363 350.537 242.295 350.537 247.127V294.011C350.537 297.64 353.479 300.583 357.109 300.583ZM363.682 287.438V279.551H385.59V287.438H363.682ZM385.59 251.508V266.406H363.682V251.508H385.59Z" fill="black"/>
<path d="M294.01 300.583H329.063C332.693 300.583 335.636 297.64 335.636 294.011V247.127C335.636 242.295 331.705 238.363 326.873 238.363H296.201C291.369 238.363 287.438 242.295 287.438 247.127V294.011C287.438 297.64 290.38 300.583 294.01 300.583ZM300.583 287.438V279.551H322.491V287.438H300.583ZM322.491 251.508V266.406H300.583V251.508H322.491Z" fill="black"/>
</svg>
