<svg width="269" height="81" viewBox="0 0 269 81" fill="none" xmlns="http://www.w3.org/2000/svg">
<path d="M18.4155 77.154C17.3889 77.154 16.4649 76.978 15.6435 76.626C14.8222 76.2593 14.1769 75.746 13.7075 75.086C13.2382 74.426 13.0035 73.656 13.0035 72.776H15.6875C15.7462 73.436 16.0029 73.9787 16.4575 74.404C16.9269 74.8293 17.5795 75.042 18.4155 75.042C19.2809 75.042 19.9555 74.8367 20.4395 74.426C20.9235 74.0007 21.1655 73.458 21.1655 72.798C21.1655 72.2847 21.0115 71.8667 20.7035 71.544C20.4102 71.2213 20.0362 70.972 19.5815 70.796C19.1415 70.62 18.5255 70.4293 17.7335 70.224C16.7362 69.96 15.9222 69.696 15.2915 69.432C14.6755 69.1533 14.1475 68.728 13.7075 68.156C13.2675 67.584 13.0475 66.8213 13.0475 65.868C13.0475 64.988 13.2675 64.218 13.7075 63.558C14.1475 62.898 14.7635 62.392 15.5555 62.04C16.3475 61.688 17.2642 61.512 18.3055 61.512C19.7869 61.512 20.9969 61.886 21.9355 62.634C22.8889 63.3673 23.4169 64.3793 23.5195 65.67H20.7475C20.7035 65.1127 20.4395 64.636 19.9555 64.24C19.4715 63.844 18.8335 63.646 18.0415 63.646C17.3229 63.646 16.7362 63.8293 16.2815 64.196C15.8269 64.5627 15.5995 65.0907 15.5995 65.78C15.5995 66.2493 15.7389 66.638 16.0175 66.946C16.3109 67.2393 16.6775 67.474 17.1175 67.65C17.5575 67.826 18.1589 68.0167 18.9215 68.222C19.9335 68.5007 20.7549 68.7793 21.3855 69.058C22.0309 69.3367 22.5735 69.7693 23.0135 70.356C23.4682 70.928 23.6955 71.698 23.6955 72.666C23.6955 73.4433 23.4829 74.1767 23.0575 74.866C22.6469 75.5553 22.0382 76.1127 21.2315 76.538C20.4395 76.9487 19.5009 77.154 18.4155 77.154ZM25.8189 70.928C25.8189 69.6813 26.0682 68.5887 26.5669 67.65C27.0802 66.6967 27.7842 65.9633 28.6789 65.45C29.5735 64.9367 30.6002 64.68 31.7589 64.68C33.2255 64.68 34.4355 65.032 35.3889 65.736C36.3569 66.4253 37.0096 67.4153 37.3469 68.706H34.6409C34.4209 68.1047 34.0689 67.6353 33.5849 67.298C33.1009 66.9607 32.4922 66.792 31.7589 66.792C30.7322 66.792 29.9109 67.1587 29.2949 67.892C28.6935 68.6107 28.3929 69.6227 28.3929 70.928C28.3929 72.2333 28.6935 73.2527 29.2949 73.986C29.9109 74.7193 30.7322 75.086 31.7589 75.086C33.2109 75.086 34.1715 74.448 34.6409 73.172H37.3469C36.9949 74.404 36.3349 75.3867 35.3669 76.12C34.3989 76.8387 33.1962 77.198 31.7589 77.198C30.6002 77.198 29.5735 76.9413 28.6789 76.428C27.7842 75.9 27.0802 75.1667 26.5669 74.228C26.0682 73.2747 25.8189 72.1747 25.8189 70.928ZM46.1163 64.68C47.0403 64.68 47.8616 64.878 48.5803 65.274C49.3136 65.67 49.8856 66.2567 50.2963 67.034C50.7216 67.8113 50.9343 68.75 50.9343 69.85V77H48.4483V70.224C48.4483 69.1387 48.177 68.31 47.6343 67.738C47.0916 67.1513 46.351 66.858 45.4123 66.858C44.4736 66.858 43.7256 67.1513 43.1683 67.738C42.6256 68.31 42.3543 69.1387 42.3543 70.224V77H39.8463V60.72H42.3543V66.286C42.7796 65.7727 43.315 65.3767 43.9603 65.098C44.6203 64.8193 45.339 64.68 46.1163 64.68ZM59.3914 77.198C58.2474 77.198 57.2134 76.9413 56.2894 76.428C55.3654 75.9 54.6394 75.1667 54.1114 74.228C53.5834 73.2747 53.3194 72.1747 53.3194 70.928C53.3194 69.696 53.5907 68.6033 54.1334 67.65C54.6761 66.6967 55.4167 65.9633 56.3554 65.45C57.2941 64.9367 58.3427 64.68 59.5014 64.68C60.6601 64.68 61.7087 64.9367 62.6474 65.45C63.5861 65.9633 64.3267 66.6967 64.8694 67.65C65.4121 68.6033 65.6834 69.696 65.6834 70.928C65.6834 72.16 65.4047 73.2527 64.8474 74.206C64.2901 75.1593 63.5274 75.9 62.5594 76.428C61.6061 76.9413 60.5501 77.198 59.3914 77.198ZM59.3914 75.02C60.0367 75.02 60.6381 74.866 61.1954 74.558C61.7674 74.25 62.2294 73.788 62.5814 73.172C62.9334 72.556 63.1094 71.808 63.1094 70.928C63.1094 70.048 62.9407 69.3073 62.6034 68.706C62.2661 68.09 61.8187 67.628 61.2614 67.32C60.7041 67.012 60.1027 66.858 59.4574 66.858C58.8121 66.858 58.2107 67.012 57.6534 67.32C57.1107 67.628 56.6781 68.09 56.3554 68.706C56.0327 69.3073 55.8714 70.048 55.8714 70.928C55.8714 72.2333 56.2014 73.2453 56.8614 73.964C57.5361 74.668 58.3794 75.02 59.3914 75.02ZM73.4207 77.198C72.2767 77.198 71.2427 76.9413 70.3187 76.428C69.3947 75.9 68.6687 75.1667 68.1407 74.228C67.6127 73.2747 67.3487 72.1747 67.3487 70.928C67.3487 69.696 67.62 68.6033 68.1627 67.65C68.7054 66.6967 69.446 65.9633 70.3847 65.45C71.3234 64.9367 72.372 64.68 73.5307 64.68C74.6894 64.68 75.738 64.9367 76.6767 65.45C77.6154 65.9633 78.356 66.6967 78.8987 67.65C79.4414 68.6033 79.7127 69.696 79.7127 70.928C79.7127 72.16 79.434 73.2527 78.8767 74.206C78.3194 75.1593 77.5567 75.9 76.5887 76.428C75.6354 76.9413 74.5794 77.198 73.4207 77.198ZM73.4207 75.02C74.066 75.02 74.6674 74.866 75.2247 74.558C75.7967 74.25 76.2587 73.788 76.6107 73.172C76.9627 72.556 77.1387 71.808 77.1387 70.928C77.1387 70.048 76.97 69.3073 76.6327 68.706C76.2954 68.09 75.848 67.628 75.2907 67.32C74.7334 67.012 74.132 66.858 73.4867 66.858C72.8414 66.858 72.24 67.012 71.6827 67.32C71.14 67.628 70.7074 68.09 70.3847 68.706C70.062 69.3073 69.9007 70.048 69.9007 70.928C69.9007 72.2333 70.2307 73.2453 70.8907 73.964C71.5654 74.668 72.4087 75.02 73.4207 75.02ZM84.7 60.72V77H82.192V60.72H84.7ZM101.65 77L98.1296 70.884H96.2156V77H93.7076V61.71H98.9876C100.161 61.71 101.151 61.9153 101.958 62.326C102.779 62.7367 103.388 63.2867 103.784 63.976C104.194 64.6653 104.4 65.4353 104.4 66.286C104.4 67.2833 104.106 68.1927 103.52 69.014C102.948 69.8207 102.06 70.3707 100.858 70.664L104.642 77H101.65ZM96.2156 68.882H98.9876C99.9263 68.882 100.63 68.6473 101.1 68.178C101.584 67.7087 101.826 67.078 101.826 66.286C101.826 65.494 101.591 64.878 101.122 64.438C100.652 63.9833 99.941 63.756 98.9876 63.756H96.2156V68.882ZM118.718 70.642C118.718 71.0967 118.689 71.5073 118.63 71.874H109.368C109.441 72.842 109.801 73.6193 110.446 74.206C111.091 74.7927 111.883 75.086 112.822 75.086C114.171 75.086 115.125 74.5213 115.682 73.392H118.388C118.021 74.5067 117.354 75.4233 116.386 76.142C115.433 76.846 114.245 77.198 112.822 77.198C111.663 77.198 110.622 76.9413 109.698 76.428C108.789 75.9 108.07 75.1667 107.542 74.228C107.029 73.2747 106.772 72.1747 106.772 70.928C106.772 69.6813 107.021 68.5887 107.52 67.65C108.033 66.6967 108.745 65.9633 109.654 65.45C110.578 64.9367 111.634 64.68 112.822 64.68C113.966 64.68 114.985 64.9293 115.88 65.428C116.775 65.9267 117.471 66.6307 117.97 67.54C118.469 68.4347 118.718 69.4687 118.718 70.642ZM116.1 69.85C116.085 68.926 115.755 68.1853 115.11 67.628C114.465 67.0707 113.665 66.792 112.712 66.792C111.847 66.792 111.106 67.0707 110.49 67.628C109.874 68.1707 109.507 68.9113 109.39 69.85H116.1ZM120.35 70.928C120.35 69.6813 120.599 68.5887 121.098 67.65C121.611 66.6967 122.315 65.9633 123.21 65.45C124.105 64.9367 125.131 64.68 126.29 64.68C127.757 64.68 128.967 65.032 129.92 65.736C130.888 66.4253 131.541 67.4153 131.878 68.706H129.172C128.952 68.1047 128.6 67.6353 128.116 67.298C127.632 66.9607 127.023 66.792 126.29 66.792C125.263 66.792 124.442 67.1587 123.826 67.892C123.225 68.6107 122.924 69.6227 122.924 70.928C122.924 72.2333 123.225 73.2527 123.826 73.986C124.442 74.7193 125.263 75.086 126.29 75.086C127.742 75.086 128.703 74.448 129.172 73.172H131.878C131.526 74.404 130.866 75.3867 129.898 76.12C128.93 76.8387 127.727 77.198 126.29 77.198C125.131 77.198 124.105 76.9413 123.21 76.428C122.315 75.9 121.611 75.1667 121.098 74.228C120.599 73.2747 120.35 72.1747 120.35 70.928ZM139.636 77.198C138.492 77.198 137.458 76.9413 136.534 76.428C135.61 75.9 134.884 75.1667 134.356 74.228C133.828 73.2747 133.564 72.1747 133.564 70.928C133.564 69.696 133.835 68.6033 134.378 67.65C134.92 66.6967 135.661 65.9633 136.6 65.45C137.538 64.9367 138.587 64.68 139.746 64.68C140.904 64.68 141.953 64.9367 142.892 65.45C143.83 65.9633 144.571 66.6967 145.114 67.65C145.656 68.6033 145.928 69.696 145.928 70.928C145.928 72.16 145.649 73.2527 145.092 74.206C144.534 75.1593 143.772 75.9 142.804 76.428C141.85 76.9413 140.794 77.198 139.636 77.198ZM139.636 75.02C140.281 75.02 140.882 74.866 141.44 74.558C142.012 74.25 142.474 73.788 142.826 73.172C143.178 72.556 143.354 71.808 143.354 70.928C143.354 70.048 143.185 69.3073 142.848 68.706C142.51 68.09 142.063 67.628 141.506 67.32C140.948 67.012 140.347 66.858 139.702 66.858C139.056 66.858 138.455 67.012 137.898 67.32C137.355 67.628 136.922 68.09 136.6 68.706C136.277 69.3073 136.116 70.048 136.116 70.928C136.116 72.2333 136.446 73.2453 137.106 73.964C137.78 74.668 138.624 75.02 139.636 75.02ZM163.081 64.68C164.034 64.68 164.885 64.878 165.633 65.274C166.396 65.67 166.99 66.2567 167.415 67.034C167.855 67.8113 168.075 68.75 168.075 69.85V77H165.589V70.224C165.589 69.1387 165.318 68.31 164.775 67.738C164.232 67.1513 163.492 66.858 162.553 66.858C161.614 66.858 160.866 67.1513 160.309 67.738C159.766 68.31 159.495 69.1387 159.495 70.224V77H157.009V70.224C157.009 69.1387 156.738 68.31 156.195 67.738C155.652 67.1513 154.912 66.858 153.973 66.858C153.034 66.858 152.286 67.1513 151.729 67.738C151.186 68.31 150.915 69.1387 150.915 70.224V77H148.407V64.878H150.915V66.264C151.326 65.7653 151.846 65.3767 152.477 65.098C153.108 64.8193 153.782 64.68 154.501 64.68C155.469 64.68 156.334 64.8853 157.097 65.296C157.86 65.7067 158.446 66.3007 158.857 67.078C159.224 66.3447 159.796 65.7653 160.573 65.34C161.35 64.9 162.186 64.68 163.081 64.68ZM185.94 64.68C186.894 64.68 187.744 64.878 188.492 65.274C189.255 65.67 189.849 66.2567 190.274 67.034C190.714 67.8113 190.934 68.75 190.934 69.85V77H188.448V70.224C188.448 69.1387 188.177 68.31 187.634 67.738C187.092 67.1513 186.351 66.858 185.412 66.858C184.474 66.858 183.726 67.1513 183.168 67.738C182.626 68.31 182.354 69.1387 182.354 70.224V77H179.868V70.224C179.868 69.1387 179.597 68.31 179.054 67.738C178.512 67.1513 177.771 66.858 176.832 66.858C175.894 66.858 175.146 67.1513 174.588 67.738C174.046 68.31 173.774 69.1387 173.774 70.224V77H171.266V64.878H173.774V66.264C174.185 65.7653 174.706 65.3767 175.336 65.098C175.967 64.8193 176.642 64.68 177.36 64.68C178.328 64.68 179.194 64.8853 179.956 65.296C180.719 65.7067 181.306 66.3007 181.716 67.078C182.083 66.3447 182.655 65.7653 183.432 65.34C184.21 64.9 185.046 64.68 185.94 64.68ZM205.236 70.642C205.236 71.0967 205.206 71.5073 205.148 71.874H195.886C195.959 72.842 196.318 73.6193 196.964 74.206C197.609 74.7927 198.401 75.086 199.34 75.086C200.689 75.086 201.642 74.5213 202.2 73.392H204.906C204.539 74.5067 203.872 75.4233 202.904 76.142C201.95 76.846 200.762 77.198 199.34 77.198C198.181 77.198 197.14 76.9413 196.216 76.428C195.306 75.9 194.588 75.1667 194.06 74.228C193.546 73.2747 193.29 72.1747 193.29 70.928C193.29 69.6813 193.539 68.5887 194.038 67.65C194.551 66.6967 195.262 65.9633 196.172 65.45C197.096 64.9367 198.152 64.68 199.34 64.68C200.484 64.68 201.503 64.9293 202.398 65.428C203.292 65.9267 203.989 66.6307 204.488 67.54C204.986 68.4347 205.236 69.4687 205.236 70.642ZM202.618 69.85C202.603 68.926 202.273 68.1853 201.628 67.628C200.982 67.0707 200.183 66.792 199.23 66.792C198.364 66.792 197.624 67.0707 197.008 67.628C196.392 68.1707 196.025 68.9113 195.908 69.85H202.618ZM213.82 64.68C214.773 64.68 215.624 64.878 216.372 65.274C217.134 65.67 217.728 66.2567 218.154 67.034C218.579 67.8113 218.792 68.75 218.792 69.85V77H216.306V70.224C216.306 69.1387 216.034 68.31 215.492 67.738C214.949 67.1513 214.208 66.858 213.27 66.858C212.331 66.858 211.583 67.1513 211.026 67.738C210.483 68.31 210.212 69.1387 210.212 70.224V77H207.704V64.878H210.212V66.264C210.622 65.7653 211.143 65.3767 211.774 65.098C212.419 64.8193 213.101 64.68 213.82 64.68ZM221.155 70.884C221.155 69.6667 221.404 68.5887 221.903 67.65C222.416 66.7113 223.105 65.9853 223.971 65.472C224.851 64.944 225.826 64.68 226.897 64.68C227.689 64.68 228.466 64.856 229.229 65.208C230.006 65.5453 230.622 66 231.077 66.572V60.72H233.607V77H231.077V75.174C230.666 75.7607 230.094 76.2447 229.361 76.626C228.642 77.0073 227.813 77.198 226.875 77.198C225.819 77.198 224.851 76.934 223.971 76.406C223.105 75.8633 222.416 75.1153 221.903 74.162C221.404 73.194 221.155 72.1013 221.155 70.884ZM231.077 70.928C231.077 70.092 230.901 69.366 230.549 68.75C230.211 68.134 229.764 67.6647 229.207 67.342C228.649 67.0193 228.048 66.858 227.403 66.858C226.757 66.858 226.156 67.0193 225.599 67.342C225.041 67.65 224.587 68.112 224.235 68.728C223.897 69.3293 223.729 70.048 223.729 70.884C223.729 71.72 223.897 72.4533 224.235 73.084C224.587 73.7147 225.041 74.1987 225.599 74.536C226.171 74.8587 226.772 75.02 227.403 75.02C228.048 75.02 228.649 74.8587 229.207 74.536C229.764 74.2133 230.211 73.744 230.549 73.128C230.901 72.4973 231.077 71.764 231.077 70.928ZM248.011 70.642C248.011 71.0967 247.982 71.5073 247.923 71.874H238.661C238.734 72.842 239.094 73.6193 239.739 74.206C240.384 74.7927 241.176 75.086 242.115 75.086C243.464 75.086 244.418 74.5213 244.975 73.392H247.681C247.314 74.5067 246.647 75.4233 245.679 76.142C244.726 76.846 243.538 77.198 242.115 77.198C240.956 77.198 239.915 76.9413 238.991 76.428C238.082 75.9 237.363 75.1667 236.835 74.228C236.322 73.2747 236.065 72.1747 236.065 70.928C236.065 69.6813 236.314 68.5887 236.813 67.65C237.326 66.6967 238.038 65.9633 238.947 65.45C239.871 64.9367 240.927 64.68 242.115 64.68C243.259 64.68 244.278 64.9293 245.173 65.428C246.068 65.9267 246.764 66.6307 247.263 67.54C247.762 68.4347 248.011 69.4687 248.011 70.642ZM245.393 69.85C245.378 68.926 245.048 68.1853 244.403 67.628C243.758 67.0707 242.958 66.792 242.005 66.792C241.14 66.792 240.399 67.0707 239.783 67.628C239.167 68.1707 238.8 68.9113 238.683 69.85H245.393ZM252.987 66.638C253.354 66.022 253.838 65.5453 254.439 65.208C255.055 64.856 255.781 64.68 256.617 64.68V67.276H255.979C254.996 67.276 254.248 67.5253 253.735 68.024C253.236 68.5227 252.987 69.388 252.987 70.62V77H250.479V64.878H252.987V66.638Z" fill="#FB6C30"/>
<path d="M97.625 39.3695H88.375L83.875 12.8297L76.5 39.3695H68.25L60.75 12.8297L56.25 39.3695H47L54.375 0.880463H64.375L72.375 27.9234L80.25 0.880463H90.25L97.625 39.3695ZM104 0.880463H112.375V39.3695H104V0.880463ZM121.875 39.3695V0.880463H130.25V31.6969H144V39.3695H121.875ZM152 39.3695V0.880463H160.375V31.6969H174V39.3695H152ZM182 0.880463H190.375V39.3695H182V0.880463ZM222 31.6969V39.3695H199.875V0.880463H222V8.55312H208.25V16.2258H221.5V23.8984H208.25V31.6969H222Z" fill="#061A33"/>
</svg>
